<svg width="100" height="101" viewBox="0 0 100 101" fill="none" xmlns="http://www.w3.org/2000/svg">
<rect y="0.5" width="100" height="100" rx="8" fill="#764ABC"/>
<path d="M59.6447 58.4196C61.4898 58.2184 62.8896 56.5429 62.826 54.5321C62.7625 52.5215 61.1717 50.9128 59.2629 50.9128H59.1357C57.1631 50.9799 55.6361 52.7225 55.6998 54.8001C55.7635 55.8056 56.1451 56.6768 56.7178 57.28C54.5545 61.7708 51.2459 65.0549 46.283 67.8029C42.9107 69.6795 39.4113 70.3498 35.9119 69.8808C33.0486 69.4785 30.8217 68.1382 29.4217 65.9262C27.3857 62.6421 27.1949 59.0897 28.9129 55.5375C30.1219 52.9905 32.0305 51.1138 33.2394 50.1755C32.985 49.3042 32.6031 47.8297 32.4123 46.7574C23.1863 53.7949 24.1408 63.3123 26.9404 67.8029C29.04 71.1542 33.3031 73.2319 38.0115 73.2319C39.284 73.2319 40.5564 73.0978 41.8291 72.7629C49.9734 71.0872 56.1453 65.9932 59.6447 58.4196ZM70.8432 50.1086C66.0074 44.1434 58.8812 40.8593 50.7369 40.8593H49.7189C49.1463 39.6529 47.9373 38.8485 46.6012 38.8485H46.4738C44.5016 38.9155 42.9746 40.6581 43.0381 42.736C43.1018 44.7466 44.6924 46.3552 46.6012 46.3552H46.7283C48.1281 46.2882 49.3371 45.3498 49.8461 44.0763H50.9914C55.8271 44.0763 60.4082 45.5508 64.5441 48.4329C67.7254 50.6448 70.016 53.5269 71.2885 57.012C72.3701 59.827 72.3064 62.575 71.1611 64.921C69.3797 68.4731 66.3892 70.4169 62.4443 70.4169C59.8992 70.4169 57.4814 69.6125 56.2088 69.0093C55.509 69.6795 54.2363 70.7518 53.3455 71.4223C56.0816 72.7627 58.8812 73.5 61.5535 73.5C67.6617 73.5 72.1793 69.9476 73.8973 66.3954C75.7424 62.5079 75.615 55.8056 70.8432 50.1086ZM38.5205 59.5587C38.5842 61.5696 40.1748 63.178 42.0836 63.178H42.2109C44.1834 63.1111 45.7103 61.3684 45.6467 59.2907C45.5832 57.2798 43.9924 55.6714 42.0836 55.6714H41.9564C41.8291 55.6714 41.6381 55.6714 41.5111 55.7383C38.9023 51.1807 37.8207 46.2211 38.2025 40.8591C38.4568 36.8376 39.7295 33.3523 41.9564 30.4702C43.8016 27.9903 47.3646 26.7839 49.7826 26.717C56.5269 26.5829 59.39 35.43 59.581 38.9824C60.4082 39.1834 61.808 39.6527 62.7625 39.9878C61.9988 29.1301 55.6361 23.5 49.5281 23.5C43.8016 23.5 38.5205 27.8566 36.4207 34.2909C33.4939 42.8699 35.4027 51.1138 38.9658 57.6152C38.6478 58.0843 38.4568 58.8216 38.5205 59.5589V59.5587Z" fill="white"/>
</svg>
