<svg width="100" height="101" viewBox="0 0 100 101" fill="none" xmlns="http://www.w3.org/2000/svg">
<g clip-path="url(#clip0_123_328)">
<path d="M0 50.5V0.5H100V100.5H0" fill="#007ACC"/>
<path d="M21.925 50.675V54.75H34.925V91.75H44.15V54.75H57.15V50.75C57.15 48.5 57.15 46.675 57.05 46.625C57.05 46.55 49.125 46.525 39.5 46.525L22 46.6V50.7L21.925 50.675ZM80.35 46.5C82.9 47.1 84.85 48.25 86.6 50.075C87.525 51.075 88.9 52.825 89 53.275C89 53.425 84.675 56.35 82.05 57.975C81.95 58.05 81.55 57.625 81.15 56.975C79.85 55.125 78.525 54.325 76.45 54.175C73.45 53.975 71.45 55.55 71.45 58.175C71.45 58.975 71.6 59.425 71.9 60.075C72.575 61.45 73.825 62.275 77.7 63.975C84.85 67.05 87.95 69.075 89.825 71.975C91.95 75.225 92.425 80.325 91 84.15C89.4 88.325 85.5 91.15 79.925 92.075C78.175 92.375 74.175 92.325 72.3 92C68.3 91.25 64.475 89.25 62.125 86.675C61.2 85.675 59.425 83 59.525 82.825L60.475 82.225L64.225 80.05L67.05 78.4L67.7 79.275C68.525 80.575 70.375 82.325 71.45 82.925C74.7 84.6 79.05 84.375 81.2 82.425C82.125 81.575 82.525 80.675 82.525 79.425C82.525 78.275 82.35 77.75 81.775 76.875C80.975 75.775 79.375 74.875 74.875 72.875C69.7 70.675 67.5 69.275 65.45 67.125C64.275 65.825 63.2 63.8 62.7 62.125C62.325 60.675 62.2 57.125 62.55 55.7C63.625 50.7 67.4 47.2 72.8 46.2C74.55 45.85 78.675 46 80.4 46.45L80.35 46.5Z" fill="white"/>
</g>
<defs>
<clipPath id="clip0_123_328">
<rect y="0.5" width="100" height="100" rx="8" fill="white"/>
</clipPath>
</defs>
</svg>
