<svg width="51" height="50" viewBox="0 0 51 50" fill="none" xmlns="http://www.w3.org/2000/svg">
<rect x="0.5" width="50" height="50" rx="8" fill="white"/>
<g clip-path="url(#clip0_180_69)">
<path d="M35.9129 15.2848C33.9709 14.3762 31.8945 13.7158 29.7236 13.3398C29.457 13.8219 29.1455 14.4702 28.9308 14.9859C26.6231 14.6389 24.3367 14.6389 22.0714 14.9859C21.8567 14.4702 21.5382 13.8219 21.2692 13.3398C19.096 13.7158 17.0172 14.3786 15.0752 15.2896C11.1583 21.2086 10.0965 26.9806 10.6274 32.6706C13.2253 34.6107 15.743 35.7892 18.2182 36.5604C18.8294 35.7193 19.3744 34.8252 19.844 33.8828C18.9497 33.543 18.0932 33.1237 17.2838 32.6369C17.4985 32.4778 17.7086 32.3115 17.9115 32.1404C22.8477 34.4492 28.2111 34.4492 33.0884 32.1404C33.2937 32.3115 33.5037 32.4778 33.7161 32.6369C32.9044 33.1261 32.0455 33.5454 31.1512 33.8853C31.6207 34.8252 32.1635 35.7217 32.7769 36.5628C35.2545 35.7916 37.7746 34.6131 40.3725 32.6706C40.9954 26.0744 39.3083 20.3554 35.9129 15.2848ZM20.5165 29.1713C19.0347 29.1713 17.8194 27.7879 17.8194 26.1033C17.8194 24.4187 19.0087 23.033 20.5165 23.033C22.0243 23.033 23.2394 24.4163 23.2135 26.1033C23.2158 27.7879 22.0243 29.1713 20.5165 29.1713ZM30.4834 29.1713C29.0016 29.1713 27.7864 27.7879 27.7864 26.1033C27.7864 24.4187 28.9756 23.033 30.4834 23.033C31.9912 23.033 33.2064 24.4163 33.1805 26.1033C33.1805 27.7879 31.9912 29.1713 30.4834 29.1713Z" fill="#5865F2"/>
</g>
<defs>
<clipPath id="clip0_180_69">
<rect width="30" height="30" fill="white" transform="translate(10.5 10)"/>
</clipPath>
</defs>
</svg>
