<svg width="100" height="101" viewBox="0 0 100 101" fill="none" xmlns="http://www.w3.org/2000/svg">
<rect y="0.5" width="100" height="100" rx="8" fill="#0091E2"/>
<g clip-path="url(#clip0_123_268)">
<path d="M50 100.5C77.6142 100.5 100 78.1142 100 50.5C100 22.8858 77.6142 0.5 50 0.5C22.3858 0.5 0 22.8858 0 50.5C0 78.1142 22.3858 100.5 50 100.5Z" fill="#0091E2"/>
<path d="M80.791 45.5684C80.6348 45.4414 79.2187 44.377 76.2305 44.377C75.4394 44.377 74.6484 44.4355 73.8672 44.582C73.291 40.6074 70.0098 38.6738 69.8633 38.5859L69.0625 38.1172L68.5352 38.8789C67.8711 39.9043 67.3926 41.0273 67.1094 42.2188C66.5723 44.4844 66.8945 46.6133 68.0469 48.4297C66.6602 49.2012 64.4238 49.3965 63.9746 49.4062H27.0508C26.084 49.4062 25.3027 50.1875 25.3027 51.1543C25.2637 54.3867 25.8105 57.5996 26.9141 60.6367C28.1836 63.9766 30.0781 66.4277 32.5391 67.9316C35.293 69.6211 39.7754 70.5879 44.8633 70.5879C47.1582 70.5977 49.4531 70.3828 51.709 69.9629C54.8438 69.3867 57.8613 68.293 60.6348 66.7207C62.9199 65.3926 64.9805 63.7129 66.7285 61.7305C69.6484 58.4199 71.3965 54.7285 72.6953 51.457H73.2129C76.416 51.457 78.3887 50.1777 79.4727 49.1035C80.1953 48.4199 80.7617 47.5898 81.123 46.6621L81.3477 45.9883L80.791 45.5684ZM30.4688 48.3418H35.4199C35.6543 48.3418 35.8496 48.1465 35.8496 47.9121V43.5078C35.8496 43.2734 35.6543 43.0781 35.4199 43.0684H30.4688C30.2344 43.0684 30.0391 43.2637 30.0391 43.498V47.9121C30.0391 48.1562 30.2344 48.3418 30.4688 48.3418ZM37.2949 48.3418H42.2461C42.4805 48.3418 42.6758 48.1465 42.6758 47.9121V43.5078C42.6758 43.2734 42.4805 43.0781 42.2461 43.0684H37.2949C37.0508 43.0684 36.8555 43.2637 36.8555 43.5078V47.9121C36.8555 48.1562 37.0508 48.3418 37.2949 48.3418ZM44.209 48.3516H49.1602C49.3945 48.3516 49.5898 48.1562 49.5898 47.9219V43.5176C49.5898 43.2832 49.3945 43.0879 49.1602 43.0781H44.209C43.9746 43.0781 43.7793 43.2734 43.7793 43.5078V47.9219C43.7793 48.1562 43.9746 48.3418 44.209 48.3516ZM51.0547 48.3516H56.0059C56.2402 48.3516 56.4355 48.1562 56.4453 47.9219V43.5176C56.4453 43.2734 56.25 43.0781 56.0059 43.0781H51.0547C50.8203 43.0781 50.625 43.2734 50.625 43.5078V47.9219C50.625 48.1562 50.8105 48.3516 51.0547 48.3516ZM37.2852 42.0039H42.2363C42.4707 42.0039 42.666 41.8086 42.666 41.5645V37.1602C42.666 36.9258 42.4707 36.7305 42.2363 36.7305H37.2852C37.041 36.7305 36.8555 36.9258 36.8457 37.1602V41.5645C36.8555 41.8086 37.0508 42.0039 37.2852 42.0039ZM44.209 42.0039H49.1602C49.3945 42.0039 49.5898 41.8086 49.5898 41.5645V37.1602C49.5898 36.9258 49.3945 36.7305 49.1602 36.7305H44.209C43.9746 36.7305 43.7793 36.9258 43.7793 37.1602V41.5645C43.7793 41.8086 43.9746 42.0039 44.209 42.0039ZM51.0547 42.0039H56.0059C56.25 42.0039 56.4355 41.8086 56.4453 41.5645V37.1602C56.4453 36.916 56.25 36.7305 56.0059 36.7305H51.0547C50.8203 36.7305 50.625 36.9258 50.625 37.1602V41.5645C50.625 41.8086 50.8105 42.0039 51.0547 42.0039ZM51.0547 35.666H56.0059C56.25 35.666 56.4453 35.4707 56.4453 35.2266V30.8125C56.4453 30.5781 56.25 30.3828 56.0059 30.3828H51.0547C50.8203 30.3828 50.625 30.5781 50.625 30.8125V35.2266C50.625 35.4707 50.8105 35.666 51.0547 35.666ZM57.9492 48.3516H62.9004C63.1348 48.3516 63.3301 48.1562 63.3301 47.9219V43.5176C63.3301 43.2734 63.1348 43.0879 62.9004 43.0781H57.9492C57.7148 43.0781 57.5195 43.2734 57.5195 43.5078V47.9219C57.5195 48.1562 57.7148 48.3516 57.9492 48.3516Z" fill="white"/>
</g>
<defs>
<clipPath id="clip0_123_268">
<rect width="100" height="100" fill="white" transform="translate(0 0.5)"/>
</clipPath>
</defs>
</svg>
