<svg width="100" height="101" viewBox="0 0 100 101" fill="none" xmlns="http://www.w3.org/2000/svg">
<g clip-path="url(#clip0_387_17)">
<rect y="0.5" width="100" height="100" rx="8" fill="#13AA52"/>
<path d="M63.3652 44.3906C60.207 30.4521 52.7432 25.8691 51.9394 24.1182C51.0605 22.8828 50.1699 20.6855 50.1699 20.6855C50.1553 20.6484 50.1318 20.583 50.1045 20.5195C50.0137 21.7549 49.9668 22.2314 48.7988 23.4775C46.9902 24.8916 37.7109 32.6777 36.9561 48.5137C36.2519 63.2832 47.625 72.084 49.1631 73.2061L49.3379 73.3301V73.3193C49.3477 73.3936 49.8262 76.835 50.1621 80.4814H51.3672C51.6499 77.9039 52.0737 75.3437 52.6367 72.8125L52.7344 72.749C53.4224 72.2557 54.0783 71.7192 54.6982 71.1426L54.7686 71.0791C58.0381 68.0586 63.916 61.0723 63.8584 49.9336C63.8462 48.0755 63.6813 46.2216 63.3652 44.3906ZM50.0342 64.8672C50.0342 64.8672 50.0342 44.1523 50.7178 44.1562C51.251 44.1562 51.9414 70.876 51.9414 70.876C50.9922 70.7617 50.0342 66.4785 50.0342 64.8672Z" fill="white"/>
</g>
<defs>
<clipPath id="clip0_387_17">
<rect width="100" height="100" fill="white" transform="translate(0 0.5)"/>
</clipPath>
</defs>
</svg>
