<svg width="100" height="101" viewBox="0 0 100 101" fill="none" xmlns="http://www.w3.org/2000/svg">
<g clip-path="url(#clip0_387_16)">
<path d="M0 8.5C0 4.08172 3.58172 0.5 8 0.5H92C96.4183 0.5 100 4.08172 100 8.5V92.5C100 96.9183 96.4183 100.5 92 100.5H8C3.58172 100.5 0 96.9183 0 92.5V8.5Z" fill="white"/>
<path d="M74 94L78.5 100.5H82.5L76 92V92.5L74 94Z" fill="#D9D9D9" stroke="black"/>
<rect y="0.5" width="100" height="100" rx="50" fill="black"/>
<path d="M46.7253 0.52691C46.5103 0.546458 45.826 0.614874 45.2102 0.663743C31.0068 1.9441 17.7028 9.60671 9.27664 21.3841C4.58456 27.9325 1.58358 35.3605 0.449658 43.2284C0.0488759 45.9748 0 46.786 0 50.5098C0 54.2336 0.0488759 55.0448 0.449658 57.7912C3.16716 76.5666 16.5298 92.3414 34.653 98.1861C37.8983 99.2319 41.3196 99.9453 45.2102 100.375C46.7253 100.542 53.2747 100.542 54.7898 100.375C61.5054 99.6326 67.1945 97.971 72.8055 95.1073C73.6657 94.6675 73.8319 94.5502 73.7146 94.4525C73.6364 94.3939 69.9707 89.4777 65.5718 83.5352L57.5758 72.7353L47.5562 57.9085C42.043 49.7572 37.5073 43.0915 37.4682 43.0915C37.4291 43.0818 37.39 49.6693 37.3705 57.713C37.3412 71.797 37.3314 72.3639 37.1554 72.6962C36.9013 73.1751 36.7058 73.3706 36.2952 73.5856C35.9824 73.742 35.7087 73.7713 34.2327 73.7713H32.5415L32.0919 73.4878C31.7986 73.3021 31.5836 73.0578 31.437 72.7744L31.2317 72.3345L31.2512 52.7382L31.2805 33.1321L31.5836 32.7509C31.74 32.5457 32.0723 32.2818 32.3069 32.1547C32.7077 31.9592 32.8641 31.9397 34.5552 31.9397C36.5494 31.9397 36.8817 32.0179 37.3998 32.5848C37.5464 32.7411 42.9717 40.912 49.4624 50.7541C55.9531 60.5963 64.8289 74.0352 69.1887 80.6324L77.1066 92.6248L77.5073 92.3609C81.0557 90.0543 84.8094 86.7703 87.781 83.3495C94.1056 76.0877 98.1818 67.2327 99.5503 57.7912C99.9511 55.0448 100 54.2336 100 50.5098C100 46.786 99.9511 45.9748 99.5503 43.2284C96.8329 24.453 83.4702 8.67821 65.347 2.83351C62.1505 1.7975 58.7488 1.08401 54.9365 0.653969C53.998 0.556232 47.5367 0.44872 46.7253 0.52691V0.52691ZM67.1945 30.7668C67.6637 31.0014 68.045 31.451 68.1818 31.9201C68.26 32.1743 68.2796 37.6085 68.26 49.8549L68.2307 67.4281L65.132 62.6781L62.0235 57.9281V45.1538C62.0235 36.895 62.0626 32.2525 62.1212 32.0277C62.2776 31.4803 62.6198 31.0503 63.089 30.7962C63.4897 30.5909 63.6364 30.5714 65.1711 30.5714C66.6178 30.5714 66.872 30.5909 67.1945 30.7668V30.7668Z" fill="white"/>
<path d="M76.5892 92.8054C76.2474 93.0202 76.14 93.1667 76.4427 93.0007C76.6575 92.8738 77.0091 92.6101 76.9505 92.6003C76.9212 92.6003 76.7552 92.698 76.5892 92.8054ZM75.9154 93.2448C75.7397 93.3815 75.7397 93.3913 75.9545 93.2839C76.0717 93.2253 76.1693 93.1569 76.1693 93.1374C76.1693 93.0593 76.1205 93.0788 75.9154 93.2448ZM75.4272 93.5377C75.2514 93.6745 75.2514 93.6842 75.4663 93.5768C75.5834 93.5182 75.6811 93.4499 75.6811 93.4303C75.6811 93.3522 75.6323 93.3717 75.4272 93.5377ZM74.939 93.8307C74.7632 93.9674 74.7632 93.9772 74.978 93.8697C75.0952 93.8112 75.1928 93.7428 75.1928 93.7233C75.1928 93.6452 75.144 93.6647 74.939 93.8307ZM74.1969 94.2213C73.8258 94.4166 73.8453 94.4947 74.2164 94.3092C74.3824 94.2213 74.5093 94.1334 74.5093 94.1139C74.5093 94.0455 74.4996 94.0553 74.1969 94.2213Z" fill="black"/>
<path d="M74.7505 94.1035C74.8626 94.1035 74.9687 94.244 75.0603 94.3051C75.1362 94.3556 75.3383 94.4267 75.3888 94.4898C75.4258 94.5361 75.5209 94.6053 75.5717 94.6391C75.605 94.6613 75.5183 94.5766 75.5064 94.5383C75.4862 94.4739 75.456 94.4062 75.456 94.3387" stroke="black" stroke-width="2" stroke-linecap="round"/>
<path d="M75.456 93.7676C75.5879 93.8374 75.6932 93.9651 75.8087 94.055C75.9329 94.1516 75.9995 94.4089 76.1278 94.473" stroke="black" stroke-width="2" stroke-linecap="round"/>
<path d="M75.6575 93.9019C75.7964 94.2769 76.1124 94.5337 76.3294 94.8592C76.451 95.0416 76.5543 95.2357 76.6821 95.4135C76.7677 95.5326 76.9221 95.6802 76.9676 95.8166" stroke="black" stroke-width="2" stroke-linecap="round"/>
<path d="M76.3294 95.2119C76.4623 95.369 76.5065 95.5774 76.6317 95.7419C76.7556 95.9048 76.8347 96.0945 76.934 96.2719C77.0261 96.4364 77.0864 96.6215 77.171 96.7908C77.2919 97.0325 77.4953 97.2127 77.6395 97.429" stroke="black" stroke-width="2" stroke-linecap="round"/>
<path d="M77.2364 96.5894C77.4512 96.8656 77.695 97.2597 77.8074 97.5971" stroke="black" stroke-width="2" stroke-linecap="round"/>
<path d="M76.9341 94.2378C77.2098 94.6055 77.3694 95.0076 77.5723 95.4135C77.7083 95.6855 77.9087 95.9183 78.0426 96.1861" stroke="black" stroke-width="2" stroke-linecap="round"/>
<path d="M77.5723 95.5815C77.708 96.2299 78.1642 96.6632 78.5278 97.1921C78.6289 97.3392 78.6878 97.4899 78.7816 97.6307" stroke="black" stroke-width="2" stroke-linecap="round"/>
<path d="M77.9418 97.6306C78.0231 97.8967 78.1757 98.1461 78.3113 98.3883C78.4001 98.5468 78.4498 98.7285 78.5465 98.8735" stroke="black" stroke-width="2" stroke-linecap="round"/>
<path d="M78.4793 98.0337C78.5374 98.041 78.6925 98.3109 78.748 98.3696C78.8255 98.4517 78.876 98.4943 78.9832 98.545C79.2601 98.6762 79.5525 98.4333 79.7222 98.7727" stroke="black" stroke-width="2" stroke-linecap="round"/>
<path d="M79.2855 99.4446C79.4143 99.4589 79.5081 99.5454 79.6382 99.5454C79.7607 99.5454 79.8839 99.5118 79.9909 99.5118C80.1978 99.5118 80.489 99.5001 80.5956 99.7133" stroke="black" stroke-width="2" stroke-linecap="round"/>
</g>
<defs>
<clipPath id="clip0_387_16">
<rect width="100" height="100" fill="white" transform="translate(0 0.5)"/>
</clipPath>
</defs>
</svg>
