<svg width="51" height="50" viewBox="0 0 51 50" fill="none" xmlns="http://www.w3.org/2000/svg">
<rect x="0.5" width="50" height="50" rx="8" fill="#23A0DD"/>
<g clip-path="url(#clip0_180_64)">
<path d="M25.5104 50.0208C39.3233 50.0208 50.5208 38.8233 50.5208 25.0104C50.5208 11.1975 39.3233 0 25.5104 0C11.6975 0 0.5 11.1975 0.5 25.0104C0.5 38.8233 11.6975 50.0208 25.5104 50.0208Z" fill="#23A0DD"/>
<path fill-rule="evenodd" clip-rule="evenodd" d="M11.8078 24.7399C19.0964 21.5746 23.9486 19.4713 26.385 18.4509C33.3197 15.5563 34.7774 15.0565 35.7145 15.0356C35.9227 15.0356 36.3809 15.0773 36.6933 15.3272C36.9431 15.5354 37.0056 15.8062 37.0473 16.0144C37.0889 16.2227 37.1306 16.66 37.0889 16.9932C36.7141 20.9498 35.0898 30.55 34.2568 34.9648C33.9027 36.8391 33.2155 37.4638 32.5491 37.5263C31.0914 37.6512 29.9877 36.5683 28.5925 35.6521C26.385 34.2152 25.1564 33.3197 23.0115 31.9036C20.5333 30.2793 22.1368 29.3838 23.5529 27.9261C23.9277 27.5513 30.3209 21.7204 30.4459 21.1997C30.4667 21.1373 30.4667 20.8874 30.3209 20.7624C30.1751 20.6375 29.9669 20.6791 29.8003 20.7208C29.5712 20.7624 26.0727 23.0948 19.263 27.697C18.2634 28.3843 17.368 28.7174 16.5558 28.6966C15.6603 28.6758 13.9527 28.1968 12.6616 27.7803C11.0998 27.2805 9.85027 27.0098 9.95439 26.1352C10.0169 25.677 10.6416 25.2189 11.8078 24.7399Z" fill="white"/>
</g>
<defs>
<clipPath id="clip0_180_64">
<rect width="50" height="50" fill="white" transform="translate(0.5)"/>
</clipPath>
</defs>
</svg>
